<?xml version="1.0" encoding="UTF-8" standalone="no"?>
<svg width="13px" height="13px" viewBox="0 0 13 13" version="1.1" xmlns="http://www.w3.org/2000/svg" xmlns:xlink="http://www.w3.org/1999/xlink">
    <!-- Generator: Sketch 44.1 (41455) - http://www.bohemiancoding.com/sketch -->
    <title>exit_fullscreen</title>
    <desc>Created with Sketch.</desc>
    <defs></defs>
    <g id="Page-1" stroke="none" stroke-width="1" fill="none" fill-rule="evenodd">
        <g id="10_a4_Visualizer_iPad_2" transform="translate(-681.000000, -251.000000)" fill-rule="nonzero" fill="#FFFFFF">
            <g id="Group-8" transform="translate(74.000000, 242.000000)">
                <g id="data" transform="translate(2.000000, 0.000000)">
                    <g id="exit_fullscreen" transform="translate(605.595766, 9.000000)">
                        <path d="M8.26844118,7.82352941 L11.0147059,7.82352941 C11.242,7.82352941 11.4264706,7.63905882 11.4264706,7.41176471 C11.4264706,7.18447059 11.242,7 11.0147059,7 L7.51470588,7 C7.28741176,7 7,7.26270588 7,7.49020588 L7,10.9902059 C7,11.2175 7.18447059,11.4019706 7.41176471,11.4019706 C7.63905882,11.4019706 7.82352941,11.2175 7.82352941,10.9902059 L7.82352941,8.72447059 L11.1262941,11.9755588 C11.2067941,12.0560588 11.3377353,12.0962059 11.4431471,12.0962059 C11.5485588,12.0962059 11.6667353,12.0560588 11.7472353,11.9755588 C11.9080294,11.8147647 11.9144118,11.515 11.7536176,11.354 L8.26844118,7.82352941 Z" id="Shape"></path>
                        <path d="M4.51680147,7 L1.01680147,7 C0.789507353,7 0.605036765,7.18447059 0.605036765,7.41176471 C0.605036765,7.63905882 0.789507353,7.82352941 1.01680147,7.82352941 L3.61194853,7.82352941 L0.120595588,11.354 C-0.0401985294,11.5147941 -0.0401985294,11.795 0.120595588,11.9557941 C0.200889706,12.0362941 0.306301471,12.0861176 0.411713235,12.0861176 C0.517125,12.0861176 0.571066176,12.0509118 0.651360294,11.9704118 L4.00188971,8.57335294 L4.00188971,10.99 C4.00188971,11.2172941 4.18636029,11.4017647 4.41365441,11.4017647 C4.64094853,11.4017647 4.82541912,11.2172941 4.82541912,10.99 L4.82541912,7.49 C4.825625,7.26270588 4.74409559,7 4.51680147,7 Z" id="Shape"></path>
                        <path d="M11.1262941,0.130789303 L7.82352941,3.38208342 L7.82352941,1.1435246 C7.82352941,0.916230479 7.63905882,0.731759891 7.41176471,0.731759891 C7.18447059,0.731759891 7,0.916230479 7,1.1435246 L7,4.6435246 C7,4.87081871 7.28741176,4.97684813 7.51470588,4.97684813 L11.0147059,4.97684813 C11.242,4.97684813 11.4264706,4.79237754 11.4264706,4.56508342 C11.4264706,4.3377893 11.242,4.15331871 11.0147059,4.15331871 L8.24126471,4.15331871 L11.76,0.67390695 C11.9207941,0.513112832 11.8950588,0.272230479 11.7342647,0.111436361 C11.5736765,-0.0495636386 11.2868824,-0.0300048151 11.1262941,0.130789303 Z" id="Shape"></path>
                        <path d="M4.43319715,0.721566176 C4.20590304,0.721566176 4.02143245,0.906036765 4.02143245,1.13333088 L4.02143245,3.52280147 L0.670903036,0.120595588 C0.510314801,-0.0401985294 0.274991271,-0.0401985294 0.114403036,0.120595588 C-0.0463910818,0.281389706 -0.0336263759,0.502713235 0.127167742,0.663713235 L3.65846186,4.143125 L1.03613833,4.143125 C0.808844212,4.143125 0.624373624,4.32759559 0.624373624,4.55488971 C0.624373624,4.78218382 0.808844212,4.96665441 1.03613833,4.96665441 L4.53613833,4.96665441 C4.76343245,4.96665441 4.84496186,4.860625 4.84496186,4.63333088 L4.84496186,1.13333088 C4.84496186,0.905830882 4.66049127,0.721566176 4.43319715,0.721566176 Z" id="Shape"></path>
                    </g>
                </g>
            </g>
        </g>
    </g>
</svg>