<?xml version="1.0" encoding="UTF-8" standalone="no"?>
<svg width="14px" height="14px" viewBox="0 0 14 14" version="1.1" xmlns="http://www.w3.org/2000/svg" xmlns:xlink="http://www.w3.org/1999/xlink">
    <!-- Generator: Sketch 43.2 (39069) - http://www.bohemiancoding.com/sketch -->
    <title>full_screen</title>
    <desc>Created with Sketch.</desc>
    <defs></defs>
    <g id="Page-1" stroke="none" stroke-width="1" fill="none" fill-rule="evenodd">
        <g id="18_a2_Visualizer_Enlarge" transform="translate(-1343.000000, -660.000000)" fill-rule="nonzero" fill="#FFFFFF">
            <g id="Group-8" transform="translate(239.000000, 245.000000)">
                <g id="data" transform="translate(1.000000, 0.000000)">
                    <g id="full_screen" transform="translate(1103.000000, 415.000000)">
                        <path d="M1.26844118,0.823529412 L4.01470588,0.823529412 C4.242,0.823529412 4.42647059,0.639058824 4.42647059,0.411764706 C4.42647059,0.184470588 4.242,0 4.01470588,0 L0.514705882,0 C0.287411765,0 0,0.262705882 0,0.490205882 L0,3.99020588 C0,4.2175 0.184470588,4.40197059 0.411764706,4.40197059 C0.639058824,4.40197059 0.823529412,4.2175 0.823529412,3.99020588 L0.823529412,1.72447059 L4.12629412,4.97555882 C4.20679412,5.05605882 4.33773529,5.09620588 4.44314706,5.09620588 C4.54855882,5.09620588 4.66673529,5.05605882 4.74723529,4.97555882 C4.90802941,4.81476471 4.91441176,4.515 4.75361765,4.354 L1.26844118,0.823529412 Z" id="Shape"></path>
                        <path d="M13.6911765,0 L10.1911765,0 C9.96388235,0 9.77941176,0.184470588 9.77941176,0.411764706 C9.77941176,0.639058824 9.96388235,0.823529412 10.1911765,0.823529412 L12.7863235,0.823529412 L9.29497059,4.354 C9.13417647,4.51479412 9.13417647,4.795 9.29497059,4.95579412 C9.37526471,5.03629412 9.48067647,5.08611765 9.58608824,5.08611765 C9.6915,5.08611765 9.74544118,5.05091176 9.82573529,4.97041176 L13.1762647,1.57335294 L13.1762647,3.99 C13.1762647,4.21729412 13.3607353,4.40176471 13.5880294,4.40176471 C13.8153235,4.40176471 13.9997941,4.21729412 13.9997941,3.99 L13.9997941,0.49 C14,0.262705882 13.9184706,0 13.6911765,0 Z" id="Shape"></path>
                        <path d="M4.12629412,9.15394118 L0.823529412,12.4052353 L0.823529412,10.1666765 C0.823529412,9.93938235 0.639058824,9.75491176 0.411764706,9.75491176 C0.184470588,9.75491176 0,9.93938235 0,10.1666765 L0,13.6666765 C0,13.8939706 0.287411765,14 0.514705882,14 L4.01470588,14 C4.242,14 4.42647059,13.8155294 4.42647059,13.5882353 C4.42647059,13.3609412 4.242,13.1764706 4.01470588,13.1764706 L1.24126471,13.1764706 L4.76,9.69705882 C4.92079412,9.53626471 4.89505882,9.29538235 4.73426471,9.13458824 C4.57367647,8.97358824 4.28688235,8.99314706 4.12629412,9.15394118 Z" id="Shape"></path>
                        <path d="M13.5882353,9.75491176 C13.3609412,9.75491176 13.1764706,9.93938235 13.1764706,10.1666765 L13.1764706,12.5561471 L9.82594118,9.15394118 C9.66535294,8.99314706 9.43002941,8.99314706 9.26944118,9.15394118 C9.10864706,9.31473529 9.12141176,9.53605882 9.28220588,9.69705882 L12.8135,13.1764706 L10.1911765,13.1764706 C9.96388235,13.1764706 9.77941176,13.3609412 9.77941176,13.5882353 C9.77941176,13.8155294 9.96388235,14 10.1911765,14 L13.6911765,14 C13.9184706,14 14,13.8939706 14,13.6666765 L14,10.1666765 C14,9.93917647 13.8155294,9.75491176 13.5882353,9.75491176 Z" id="Shape"></path>
                    </g>
                </g>
            </g>
        </g>
    </g>
</svg>